<svg xmlns="http://www.w3.org/2000/svg" data-name="Layer 1" viewBox="0 0 100 125" x="0px" y="0px"><defs><style>.cls-1{fill-rule:evenodd;}</style></defs><path class="cls-1" d="M29.274,84a1.13,1.13,0,1,1,0-2.26H44.461a1.13,1.13,0,0,1,0,2.26Zm0-6.464a1.13,1.13,0,1,1,0-2.259h12.2a1.13,1.13,0,1,1,0,2.259Zm0-8.929a1.13,1.13,0,1,1,0-2.259H41.552a1.13,1.13,0,1,1,0,2.259Zm0-6.463a1.13,1.13,0,1,1,0-2.259h12.2a1.13,1.13,0,1,1,0,2.259ZM11.314,64.55a1.13,1.13,0,0,1,1.6-1.6L16.96,67l6.426-7.913a1.126,1.126,0,1,1,1.747,1.421l-7.158,8.815a1.164,1.164,0,0,1-.132.158,1.129,1.129,0,0,1-1.6,0L11.314,64.55Zm17.96-11.34a1.13,1.13,0,1,1,0-2.259H47.757a1.13,1.13,0,1,1,0,2.259Zm0-6.463a1.13,1.13,0,1,1,0-2.26h12.2a1.13,1.13,0,1,1,0,2.26Zm-17.96,2.411a1.13,1.13,0,0,1,1.6-1.6l4.049,4.049L23.386,43.7a1.126,1.126,0,0,1,1.747,1.421l-7.158,8.815a1.3,1.3,0,0,1-.132.158,1.129,1.129,0,0,1-1.6,0l-4.932-4.932Zm17.96-11.34a1.13,1.13,0,0,1,0-2.26h29.1a1.13,1.13,0,0,1,0,2.26Zm0-6.464a1.13,1.13,0,1,1,0-2.259h12.2a1.13,1.13,0,1,1,0,2.259Zm-17.96,2.411a1.129,1.129,0,1,1,1.6-1.6l4.049,4.049L23.386,28.3a1.126,1.126,0,1,1,1.747,1.42l-7.158,8.815a1.164,1.164,0,0,1-.132.158,1.129,1.129,0,0,1-1.6,0l-4.932-4.932ZM55.453,16.042H26.93v2.669H55.453V16.042ZM25.8,13.783H56.583a1.13,1.13,0,0,1,1.13,1.13v4.928a1.13,1.13,0,0,1-1.13,1.13H25.8a1.13,1.13,0,0,1-1.13-1.13V14.913a1.13,1.13,0,0,1,1.13-1.13ZM14.814,12.631,7.4,20.046h7.416V12.631ZM58.206,88.967a20.653,20.653,0,0,1,6.481-40.045V11.033H17.073V21.176a1.13,1.13,0,0,1-1.13,1.13H5.8V87.958h4.564c12.712,0-31.394,0,29.149,0,7.186,0,14.009.611,18.692,1.011ZM88.4,40.651l-5.085,5.085v4.605h0a1.122,1.122,0,0,1-.331.8L65.943,68.18h0a.518.518,0,0,0,0,.727h0a.518.518,0,0,0,.727,0h0l17.04-17.04,0,0a1.121,1.121,0,0,1,.8-.329h4.6l5.09-5.089h-4.67a1.13,1.13,0,0,1-1.13-1.13v-4.67ZM70.581,68.192a5.513,5.513,0,0,1,.169,1.371A5.463,5.463,0,1,1,65.287,64.1a5.5,5.5,0,0,1,1.371.17l-2.313,2.312h0a2.778,2.778,0,0,0,0,3.921h0a2.779,2.779,0,0,0,3.922,0h0l2.313-2.313Zm4.873-4.874A11.933,11.933,0,1,1,71.532,59.4l-3.111,3.111a7.685,7.685,0,0,0-1.167-.411,7.7,7.7,0,1,0,5.09,4.332l3.11-3.11Zm4.651-4.651-3.021,3.021a14.223,14.223,0,1,1-3.922-3.922l3.024-3.024a18.394,18.394,0,1,0-10.9,33.212h.161c.034,0,.067-.005.1-.005l.07,0A18.379,18.379,0,0,0,80.105,58.667ZM11.314,79.942a1.129,1.129,0,1,1,1.6-1.6l4.049,4.049,6.426-7.914A1.126,1.126,0,1,1,25.133,75.9l-7.158,8.815a1.164,1.164,0,0,1-.132.158,1.129,1.129,0,0,1-1.6,0Z"/><text x="0" y="115" fill="#000000" font-size="5px" font-weight="bold" font-family="'Helvetica Neue', Helvetica, Arial-Unicode, Arial, Sans-serif">Created by icon 5</text><text x="0" y="120" fill="#000000" font-size="5px" font-weight="bold" font-family="'Helvetica Neue', Helvetica, Arial-Unicode, Arial, Sans-serif">from the Noun Project</text></svg>