<svg xmlns="http://www.w3.org/2000/svg" xmlns:xlink="http://www.w3.org/1999/xlink" version="1.1" x="0px" y="0px" viewBox="0 0 64 80" style="enable-background:new 0 0 64 64;" xml:space="preserve"><g><g><path d="M27.4,6.7l8.4-0.4c0.3,0,0.5,0.2,0.5,0.4v1.5c0,0.3-0.2,0.5-0.5,0.4l-8.4-0.4c-0.2,0-0.4-0.2-0.4-0.4V7.2    C27,6.9,27.2,6.7,27.4,6.7z"/><path d="M38.1,5.9l5.5-0.3c0.3,0,0.5,0.2,0.5,0.4v3c0,0.3-0.2,0.5-0.5,0.4l-5.5-0.3c-0.2,0-0.4-0.2-0.4-0.4V6.3    C37.7,6.1,37.9,5.9,38.1,5.9z"/><path d="M51.7,4.7c0,0-0.1,0-0.1,0c0,0-0.1,0-0.1,0h0l-0.2,0c0,0,0,0,0,0L46,5.1c-0.2,0-0.4,0.2-0.4,0.4v4c0,0.2,0.2,0.4,0.4,0.4    l5.3,0.4c0,0,0,0,0,0c0.1,0,0.1,0,0.2,0h0.1c0.1,0,0.2,0,0.2,0C52.5,10,53,8.9,53,7.5C53,6.1,52.5,5,51.7,4.7z M52,9.1    c-0.2,0.3-0.4,0.5-0.6,0.5c-0.4,0-0.9-0.9-0.9-2.1c0-1.2,0.5-2.1,0.9-2.1c0.2,0,0.4,0.2,0.6,0.5c0.2,0.4,0.3,1,0.3,1.6    C52.3,8.2,52.2,8.7,52,9.1z"/></g><path d="M40,20.4c-1.6,3.7-3.7,7.4-6.9,6.6c-1.2-0.3-4.2-2.5-4.5-3v0c0,0.2-0.3,35.7-0.4,36.3c-0.1,1.8-2.1,2.5-2.8,2.5h0   c-1.5,0-2.8-1.2-2.9-2.7c-0.1-1.4-0.6-15.7-0.6-16.5c0-0.4-0.4-0.8-0.8-0.8c-0.4,0-0.8,0.4-0.8,0.8c0,0,0.1,16.1,0,16.7   c-0.3,2.4-2.8,2.5-2.9,2.5c-0.1,0-2.2,0-2.7-2.3c-0.1-0.4-1.2-22-1.3-22.6c-1.2,0-2.2-0.9-2.2-2.1c0,0-0.2-13.1-0.2-13.5   c0-1.8,0.2-3.8,1.5-5.3c0.8-0.8,1.8-1.3,2.9-1.7c0.5-0.2,1.6-0.5,1.6-0.5l2.6,4.8c0-0.5,0.1-2.7,0.1-3c0-0.2-0.4-1.2-0.4-1.2   l0.2-0.1c0,0,2.3,0,2.4,0l0.2,0.1c0,0-0.3,0.9-0.3,1.1c0,0.2,0,1.8,0.1,3c0,0,0,0,0,0l2.6-4.8c0,0,1.4,0.3,1.5,0.4   c2.9,1.1,6.7,4.7,8,6.1c0.2,0.2,0.5,0.1,0.7-0.1c2.7-4.8,4.3-7.2,4.3-7.2c0.4-0.5,1.2-0.9,1.9-0.6c0.5,0.2,0.9,0.7,0.9,1.6   C41.9,15.4,41.2,17.7,40,20.4z"/><path d="M25.2,7c0.1,0.1,0.2,0.6,0.2,0.6c0,0.6-0.1,1.2-0.5,1.7c0,0,0,0.2,0,0.2c-0.4,1.6-1.3,2.9-2.6,3.7   c-0.6,0.4-1.1,0.5-1.7,0.5c-0.7,0-1.3-0.2-1.9-0.7c-1.2-0.9-1.9-2.2-2.2-3.7c0,0,0-0.1-0.1-0.2c-0.2-0.3-0.4-0.8-0.4-1.8   c0-0.3,0.1-0.5,0.3-0.6c0-0.2-0.2-1.8-0.1-2.3c0-0.9,0.4-1.7,1.1-2.3c0.9-0.8,2.1-1.2,3.4-1.1c1.3,0.1,2.4,0.4,3.3,0.9   c1.1,0.7,1.7,2,1.6,3.4C25.4,5.7,25.2,6.9,25.2,7z"/></g><text x="0" y="79" fill="#000000" font-size="5px" font-weight="bold" font-family="'Helvetica Neue', Helvetica, Arial-Unicode, Arial, Sans-serif">Created by Mohammed Rabiul Alam</text><text x="0" y="84" fill="#000000" font-size="5px" font-weight="bold" font-family="'Helvetica Neue', Helvetica, Arial-Unicode, Arial, Sans-serif">from the Noun Project</text></svg>