<svg xmlns="http://www.w3.org/2000/svg" viewBox="0 0 60 75" x="0px" y="0px"><title>028 - Computer Objectives</title><path d="M57,2H3A1,1,0,0,0,2,3V40H58V3A1,1,0,0,0,57,2ZM56,36a2,2,0,0,1-2,2H6a2,2,0,0,1-2-2V6A2,2,0,0,1,6,4H54a2,2,0,0,1,2,2Z"/><path d="M20,48v2a5.831,5.831,0,0,1-1.367,4H41.367A5.831,5.831,0,0,1,40,50V48Zm15,4H25a1,1,0,0,1,0-2H35a1,1,0,0,1,0,2Z"/><path d="M15,32a4,4,0,1,0-4-4A4,4,0,0,0,15,32Zm-1.707-4.207a1,1,0,0,1,1.039-.236L15.2,26.4a1,1,0,1,1,1.6,1.2l-1.5,2a1,1,0,0,1-.729.4L14.5,30a1,1,0,0,1-.707-.293l-.5-.5A1,1,0,0,1,13.293,27.793Z"/><path d="M2,45a1,1,0,0,0,1,1H57a1,1,0,0,0,1-1V42H2Z"/><path d="M6,36l48,0V6H6ZM25,11H50a1,1,0,0,1,0,2H25a1,1,0,0,1,0-2Zm0,4H42a1,1,0,0,1,0,2H25a1,1,0,0,1,0-2Zm0,10H50a1,1,0,0,1,0,2H25a1,1,0,0,1,0-2Zm0,4H42a1,1,0,0,1,0,2H25a1,1,0,0,1,0-2ZM15,8a6,6,0,1,1-6,6A6.006,6.006,0,0,1,15,8Zm0,14a6,6,0,1,1-6,6A6.006,6.006,0,0,1,15,22Z"/><path d="M15,18a4,4,0,1,0-4-4A4,4,0,0,0,15,18Zm-1.707-4.207a1,1,0,0,1,1.039-.236L15.2,12.4a1,1,0,1,1,1.6,1.2l-1.5,2a1,1,0,0,1-.729.4L14.5,16a1,1,0,0,1-.707-.293l-.5-.5A1,1,0,0,1,13.293,13.793Z"/><path d="M15.839,58H44.162a3.015,3.015,0,0,0,2.128-.882,3.073,3.073,0,0,0,.7-1.118H13.012A2.979,2.979,0,0,0,15.839,58Z"/><text x="0" y="75" fill="#000000" font-size="5px" font-weight="bold" font-family="'Helvetica Neue', Helvetica, Arial-Unicode, Arial, Sans-serif">Created by Juicy Fish</text><text x="0" y="80" fill="#000000" font-size="5px" font-weight="bold" font-family="'Helvetica Neue', Helvetica, Arial-Unicode, Arial, Sans-serif">from the Noun Project</text></svg>